<svg xmlns="http://www.w3.org/2000/svg" id="Calque_2" data-name="Calque 2" viewBox="0 0 132.58 42.1"><defs><style>      .cls-1 {        fill: #f6a43c;      }      .cls-1, .cls-2 {        stroke-width: 0px;      }      .cls-2 {        fill: #323542;      }    </style></defs><g id="Calque_1-2" data-name="Calque 1"><path class="cls-1" d="M28.18,25.83c2.92,5.23,3.99,4.52,2.26,16.27,0,0-9.53-8.06-10.38-12.36s-2.05-4.82-.26-8.23c1.06-2.01,5.14-.72,8.06,4.51s2.54,3.24,1.91,15.1"></path><path class="cls-2" d="M7.63,28.41c.65-.85.34-1.52-.4-2.11-.72-.58-.59-1.4-.59-2.32-.76.73-1.63.28-2.24.1-.87-.26-.74-1.38-.92-2.23-.17-.83.11-1.6.05-2.39-.02-.31.5-.67-.02-.91-.47-.21-.99-.26-1.46.05-.44.29-.65.77-1.04,1.14-.11-.7-.06-1.43.57-1.84.6-.38,1.39-.41,1.99.02.39.27.61.24.92.01.28.22.03.45-.06.6-.83,1.34-.54,2.72-.17,4.1.15.55,1.24,1.01,1.68.68.68-.53,1.36-1.09,1.94-1.72.67-.73.6-2.31-.02-3.41-.46-.81-1.23-.68-1.97-.73-.57-.04-.77.84-1.42.5-.04-.17.37-.37.08-.45-1.03-.29-2.08-.6-3.14-.71-.64-.07-.95.68-1.39,1.17-.12-1.4.64-2.11,1.96-1.93.11.02.23.05.33.1,1.73.94,3.65.93,5.52,1.05.87.06,1.61-.74,2.54-.73.03,0,.1-.36.1-.55.01-4.31,1.28-8.33,2.98-12.21.53-1.21,1.09-2.57,2.44-3.3,1.23-.67,2.13-.51,2.79.71.29.54.64,1.07.73,1.68,1.23-.45,2.29-1.22,3.66-1.4,2.36-.33,3.05.81,3.19,2.7.14,2.05-.46,3.99-1.37,5.82-.22.44-.39.82.15,1.2,1.29.91.8,2.73-.07,3.74-2.03,2.37-4.72,3.46-7.8,3.93.38.98,1.16,1.4,2.1,1.58,3.54.67,6.68,2.06,8.84,5.08,1.18,1.65,1.98,3.5,2.01,5.59.04,2.35.1,4.7-.93,6.92-.2.44-.6.66-.71,1.47-.43-2.88-2.72-3.3-4.4-4.33-2.3-1.4-4.67-2.67-6.52-4.67-.49-.53-.69-.31-1.05.09-.54.6-1.11,1.19-1.73,1.69-.37.3-.86.59-1.56.18,1.36-.55,1.63-1.94,2.54-2.82.1-.1.24-.3.2-.39-.54-1.37-1.11-2.73-1.89-3.99,0,.47-.01.94,0,1.4.03.89-.3,1.49-1.09,2.02-1.28.85-2.69,1.58-3.58,2.91-.12-.95.18-1.61,1.3-2.27,1.29-.76,1.7-1.9,1.68-3.28,0-.27.22-.67-.24-.8-.38-.1-.69.04-.95.34-.26.3-.55.58-.85.84-.44.38-.93.65-1.69.29.62-.47,1.28-.66,1.66-1.21.24-.35.45-.64.02-1.07-.39-.39-.59-.32-.92.02-.18.19-.42.35-.67.45-.81.33-1.03.73-.53,1.58.41.69.57,1.55-.35,2.12-.08-.03-.15-.07-.23-.1ZM14.53,15.29c-.2.14-.59.35-.39.51.27.22.44-.22.62-.41.02-.09.09-.24.06-.26-.17-.11-.24.01-.3.16ZM7.62,24.43c.63-.2,1.14-.6,1.68-.96.3-.32.56-.64.37-1.25-.22.44-.38.75-.53,1.05-.54.39-1.25.47-1.71.99-.47.35-.27.79-.13,1.21l.33-1.05ZM17.39,7.45c.31-.96,1.05-1.53,1.88-1.99.42-.23.65-.49.56-1-.04-.21-.06-.45-.25-.49-.43-.11-.56.33-.8.54-.6.56-1.11,1.23-1.66,1.82-.64.69-.31.86.29,1.09.38.71.18,1.52.29,2.36.67-.34,1.28-.59,1.84-.94.75-.47,1.48-.99,2.17-1.55.4-.33.71-.92.44-1.34-.18-.28-.71-.47-1.31-.28-.72.22-1.33.57-1.99.86-.55.25-.74,1.03-1.47.93ZM21.04,11.02c.43-.03.78-.31,1.24-.28,1.99.13,2.61-1.21,2.92-2.83.35-1.83.85-3.67-.27-5.58-.11,1.35-.47,2.41-1.71,2.91-.23.09-.34.19-.22.41.52.93-.18,1.43-.68,2.02-.29.35-.87.54-.81,1.1.09.81-.33,1.42-.67,2.07-.07.11-.15.22-.22.33.2.1.35.06.42-.16ZM12.13,18.21c.22.37.62.28.85.17.81-.39,1.69-.32,2.44-.14,1.22.3,2.28.11,3.41-.27.42-.14.88-.1.63-.77-.25-.65-.65-.53-1.12-.3-1.03.5-2.12.76-3.4,1.06.55-.57,1.13-.7,1.62-.99,1.2-.7,2.61-1.06,3.51-2.25.23-.3.43-.55.29-1-.17-.53-.77-.49-.92-.45-.54.15-1.15.13-1.61.57-1.14,1.06-2.48,1.89-3.68,2.88-.64.53-1.11,1.36-2.04,1.52.16-1.1,1.41-1.44,1.67-2.64.26-1.17,1.32-2.15,1.91-3.27.57-1.09,1.02-2.24,1.46-3.39.22-.57-.08-1.1-.51-1.46-.3-.25-.48.12-.62.33-1.76,2.67-3.41,5.42-4.23,8.54-.15.57-.53,1.39.36,1.85ZM23.68,30.9l-.2-.16c.89-.52,1.85-.96,2.67-1.58.77-.59,1.7-1.21,1.93-2.17.16-.65-.77-1.06-1.05-1.69-.02-.05-.12-.07-.18-.1-2.48,3.61-3.43,4.3-6.01,4.23,1.64-.75,2.99-1.61,4.13-2.81,1.67-1.77,1.71-1.74-.12-3.26-.08-.07-.21-.08-.38-.14-.04.18-.06.32-.09.46-.47,2.42-2.29,4.48-4.3,4.85-.07-.05-.13-.11-.2-.16,1.87-1.05,3.02-2.75,3.99-4.58.52-.98-.25-1.3-.97-1.5-.82-.23-.58.47-.68.87-.5,2.13-2.09,3.77-4.08,3.98.91-.69,1.64-1.24,2.19-2,.57-.79,1.05-1.61,1.45-2.5.14-.3.39-.61.02-.8-.47-.24-1.01-.46-1.52-.46-.4,0-.19.52-.2.8-.1,1.9-1.55,3.96-3.06,4.33.9-1.51,2.17-2.82,2.54-4.61.05-.24.59-.6.07-.76-.39-.12-.77-.43-1.23-.28-.46.15-.25.54-.24.8.05,1.08-.14,2.19-1.09,2.69-1.11.58-.98,1.15-.5,2,.19.33.32.71.37,1.09.14,1.06.65,1.86,1.4,2.61,1.84,1.83,4.01,3.19,6.21,4.51.96.58,1.9,1.18,2.9,1.68.88.44.61,1.45,1.1,2.14.34-.64.47-1.24.66-1.82.29-.91.58-1.69-1.07-1.44,1.17-.53,1.92-1.16,1.43-2.43-1.23,1.37-1.73,1.62-2.95,1.45,1.19-1.19,3.45-1.66,2.72-4.14-.9,1.57-2.05,2.75-3.97,2.84l-.2-.16c1.17-.76,2.33-1.52,3.28-2.58.93-1.03.96-1.24-.08-2.3-.94,1.97-2.6,2.85-4.68,3.12ZM12.36,24.5s0-.13.03-.2c.17-.35-.41-1.05.47-1.08.69-.03.75.44.73.96-.02.42.14.69.61.69.04-.08.08-.15.1-.22.12-.47-.3-1.16.26-1.38.59-.22.79.46,1.06.88.23.36.56.34.74-.02.16-.33.43-.56.62-.85,1.27-1.96.75-4.17-1.82-4.6-.62-.1-1.28-.05-1.91-.01-1.17.07-2.25.09-1.81-1.56-1,.12-1.88.24-2.72.57-.31.12-.36.14-.19.42.74,1.22.59,2.52.31,3.88.3-.4.54-.71,1.11-.47.55.23.53.62.51,1.06-.01.37-.05.74-.07,1.11.79-.02,1.09,1.05,1.96.82ZM11.05,16.83c.22-.14.33-.17.33-.22.25-2.47,1.28-4.64,2.51-6.75.56-.96.5-1.86,0-2.84-.16-.31-.41-.31-.59-.48-.12.16-.3.31-.36.49-.4,1.24-.82,2.47-1.14,3.73-.49,1.95-1.08,3.89-.75,6.05ZM20.74,5.01c.24-.08.51-.28.66-.21.69.32,1.22.27,1.76-.33.45-.5.83-1.01,1.11-1.62.27-.59.02-1.05-.57-.91-1.18.28-2.4.56-3.36,1.4-.55.48.18.94,0,1.44-.08.23.23.24.4.23ZM23.95,11.37c-.41-.08-.28.21-.28.34-.01.42-.18.92-.47,1.01-.83.27-.89,1-1.24,1.6-.45.76.19,1.11.47,1.48.35.47.67-.22.89-.36.86-.56,1.42-1.43,1.73-2.42.18-.58-.57-1.64-1.1-1.66ZM14.95,8.12c1.07-1.55,2-3.16,3.46-4.43-1.31-.15-1.96.24-3.25,1.53-.93.93-.64,1.84-.21,2.9ZM16.94,12.13c1.66.02,3.71-1.62,3.99-3.48-1.33,1.37-4.13.58-3.99,3.48ZM19.12,2.97c-.27-.71-.62-1.32-1.15-1.87-.5-.52-.96-.81-1.54-.22-.41.42-1.35.8-.29,1.55.25.18-.07.62.23.85.85-.6,1.77-.45,2.75-.3ZM15.95,3.28c-.19-.32-.2-.73-.57-.86-.35-.13-.48.17-.59.42-.4.87-.84,1.72-1.18,2.61-.07.19-.63.53-.04.73.39.13.62-.13.74-.55.18-.6.57-1.08,1-1.53.24-.25.42-.55.63-.83ZM19.37,16.36c.69.1.6.8,1.04,1.3.14-.99,2.27-.59,1.23-1.99-1.08-1.46-1.36.77-2.27.69ZM23.49,11.18c-1.45.27-2.52.7-3.46,1.44.37,0,.8-.27,1.01-.14,1.43.83,1.78-.32,2.45-1.29ZM14.97,15.03c1.26-.67,2.1-1.57,3.16-2.31-1.77-.09-2.37.34-3.16,2.31ZM14.82,24.53c.55,1.72,1.2,3.41,1.74,5.14-.28-1.81-.66-3.59-1.74-5.14ZM13.09,24.78c.18,1.03-.21,1.81-.18,2.96.77-1.11.93-1.9.18-2.96ZM21.1,14.85c.45-.79,1.04-1.47-.3-2.01.37.68.13,1.3.3,2.01Z"></path><path class="cls-2" d="M7.62,28.74c-.09.2-.27.34-.4.13-.1-.17.17-.26.3-.36.03.08.06.16.1.24Z"></path><path class="cls-2" d="M7.86,28.51c-.08.08-.16.16-.24.24-.03-.08-.06-.16-.1-.24.02-.04.06-.08.1-.1.08.03.15.07.23.1Z"></path><path class="cls-1" d="M14.82,24.53c1.08,1.55,1.46,3.33,1.74,5.14-.54-1.72-1.19-3.41-1.74-5.14Z"></path><path class="cls-1" d="M21.1,14.85c-.17-.71.07-1.33-.3-2.01,1.34.54.75,1.21.3,2.01Z"></path><path class="cls-1" d="M7.42,24.27c.46-.52,1.17-.61,1.71-.99.05.07.11.13.16.2-.54.36-1.05.76-1.68.96-.07-.06-.13-.11-.2-.17Z"></path><path class="cls-1" d="M7.62,24.43l-.33,1.05c-.14-.43-.34-.86.13-1.21.07.06.13.11.2.17Z"></path><path class="cls-1" d="M9.13,23.28c.15-.31.31-.61.53-1.05.2.61-.06.94-.37,1.25-.05-.07-.11-.13-.16-.2Z"></path><path class="cls-2" d="M23.68,30.9c-.07.23-.22.26-.42.16.07-.11.15-.22.22-.33l.2.16Z"></path><path class="cls-2" d="M20.08,28.51c-.08.22-.23.26-.43.16.08-.11.15-.22.23-.32.07.05.13.11.2.16Z"></path><path class="cls-2" d="M25.35,32.82c-.07.23-.22.26-.42.16.07-.11.15-.22.22-.33.07.05.13.11.2.16Z"></path><path class="cls-2" d="M6.64,19.42c.09.91-.31,1.53-1.17,1.61-.84.08-.95-.67-.97-1.3-.03-.83.42-1.25,1.26-1.32.79-.06.96.37.88,1Z"></path><g><path class="cls-1" d="M45.93,26.01c.06.1.09.23.09.4,0,.31-.08.56-.23.74-.45.54-.88.91-1.3,1.13-.42.22-.93.32-1.52.32-.42,0-.8-.05-1.15-.16-.35-.1-.78-.26-1.28-.47-.46-.2-.9-.36-1.32-.49-.41.74-1.02,1.12-1.84,1.12-.45,0-.81-.1-1.07-.31-.27-.2-.4-.47-.4-.79,0-.39.19-.72.56-.98s.88-.39,1.5-.39h.16l.22-3.49c.05-.8.19-1.46.43-1.98.24-.52.57-.96,1-1.33.37-.32.79-.56,1.26-.73s.97-.25,1.5-.25c.86,0,1.53.22,1.99.67s.7,1.03.7,1.75c0,.49-.09.88-.26,1.18-.18.3-.42.45-.73.45-.22,0-.4-.05-.53-.16-.13-.11-.19-.26-.19-.46,0-.07.02-.2.05-.4.05-.22.07-.42.07-.6,0-.34-.1-.6-.29-.8s-.49-.29-.89-.29c-.7,0-1.25.23-1.63.69-.38.46-.63,1.18-.73,2.17l-.28,2.72c-.04.38-.09.72-.16,1,.51.09,1.15.23,1.92.42.45.11.79.19,1.03.24.24.05.45.07.64.07.46,0,.86-.08,1.19-.23.33-.16.65-.41.94-.75.1-.11.2-.17.32-.17.1,0,.19.05.25.14Z"></path><path class="cls-1" d="M50.55,26.37c.06.1.09.23.09.4,0,.29-.07.54-.2.74-.22.34-.52.61-.88.8-.36.19-.8.29-1.3.29-.77,0-1.36-.23-1.79-.69-.42-.46-.64-1.08-.64-1.87,0-.55.12-1.07.35-1.54.23-.48.55-.85.97-1.13s.88-.42,1.4-.42c.46,0,.84.14,1.12.41.28.28.42.65.42,1.12,0,.55-.2,1.03-.59,1.42s-1.07.71-2.02.94c.19.37.52.55.97.55.33,0,.6-.08.81-.23.21-.15.46-.41.74-.77.1-.12.2-.18.32-.18.1,0,.19.05.25.14ZM47.58,24.64c-.2.34-.31.76-.31,1.25v.02c.47-.11.84-.28,1.12-.5.27-.22.41-.48.41-.78,0-.15-.04-.27-.13-.37-.08-.09-.2-.14-.34-.14-.3,0-.55.17-.75.52Z"></path><path class="cls-1" d="M55.69,28.41c-.13-.13-.19-.38-.19-.75,0-.25.03-.57.08-.95.05-.39.14-.92.26-1.6.21-1.26.37-2.34.49-3.26.07-.58.11-1.06.11-1.44,0-.36-.13-.54-.4-.54-.21,0-.46.11-.75.32s-.61.55-.97,1.01c-.11.15-.24.23-.37.23-.11,0-.21-.05-.29-.16s-.13-.23-.13-.37c0-.13.03-.26.08-.39.05-.13.14-.28.26-.45.38-.54.81-.95,1.28-1.24.47-.29.94-.44,1.42-.44.44,0,.78.14,1.01.42.24.28.35.69.35,1.22,0,.22-.02.47-.06.76s-.08.53-.11.71c-.03.18-.06.31-.07.38.46-1.3.97-2.21,1.54-2.73.57-.52,1.19-.77,1.87-.77.52,0,.93.18,1.23.55s.45.89.45,1.56c0,.26-.04.59-.11.98.4-1.1.87-1.9,1.4-2.38.54-.48,1.15-.72,1.85-.72.56,0,.99.18,1.29.54.3.36.45.86.45,1.51,0,.35-.05.78-.16,1.28l-.73,3.43c-.08.4-.12.74-.12,1.03,0,.34.08.59.23.76.16.17.37.25.65.25.26,0,.52-.09.77-.26s.55-.47.89-.88c.1-.11.2-.17.32-.17.1,0,.19.05.25.14.06.1.09.23.09.4,0,.31-.08.56-.23.74-.42.5-.83.87-1.24,1.1-.41.23-.84.35-1.28.35-.68,0-1.21-.2-1.6-.61-.38-.4-.58-.95-.58-1.63,0-.47.1-1.16.29-2.05l.48-2.2c.02-.07.04-.2.08-.38.04-.18.07-.36.1-.52.02-.16.04-.33.04-.49,0-.28-.05-.49-.16-.63-.11-.14-.26-.21-.46-.21-.38,0-.77.24-1.18.73s-.8,1.29-1.18,2.41-.67,2.58-.91,4.37c-.06.48-.15.8-.29.97s-.37.25-.68.25c-.27,0-.47-.06-.59-.19s-.19-.37-.19-.72c0-.33.04-.76.13-1.29.09-.53.2-1.16.34-1.88.37-1.94.55-3.18.55-3.74,0-.3-.06-.53-.17-.67-.12-.14-.29-.22-.52-.22-.39,0-.8.22-1.21.67-.42.44-.82,1.23-1.22,2.36-.4,1.13-.73,2.66-.99,4.59-.06.41-.14.69-.25.85s-.32.24-.63.24-.51-.07-.64-.2Z"></path><path class="cls-1" d="M69.24,28.05c-.24-.37-.35-.86-.35-1.46,0-.36.05-.82.14-1.39.09-.56.21-1.09.35-1.58.07-.26.17-.43.29-.53.12-.1.31-.14.58-.14.41,0,.61.14.61.41,0,.2-.08.66-.23,1.39-.19.88-.29,1.48-.29,1.79,0,.24.03.42.1.55.06.13.17.19.32.19s.32-.1.54-.3c.22-.2.5-.52.86-.95.1-.11.2-.17.32-.17.1,0,.19.05.25.14.06.1.09.23.09.4,0,.32-.08.57-.23.74-.79.97-1.53,1.45-2.22,1.45-.52,0-.9-.18-1.13-.55ZM69.72,21.93c-.17-.16-.25-.37-.25-.65s.11-.51.33-.7c.22-.19.49-.28.82-.28.3,0,.54.07.72.22.18.14.28.35.28.61,0,.32-.1.57-.31.76-.21.19-.48.28-.83.28s-.59-.08-.76-.23Z"></path><path class="cls-1" d="M77.45,26.01c.06.1.09.23.09.4,0,.32-.08.57-.23.74-.3.36-.71.69-1.25,1-.54.3-1.12.46-1.73.46-.84,0-1.49-.23-1.96-.68s-.7-1.08-.7-1.87c0-.55.12-1.07.35-1.54.23-.48.55-.85.97-1.13s.88-.42,1.4-.42c.46,0,.84.14,1.12.41.28.28.42.65.42,1.12,0,.55-.2,1.03-.59,1.42s-1.07.71-2.01.94c.2.37.58.55,1.14.55.36,0,.77-.13,1.23-.38s.86-.58,1.19-.99c.1-.11.2-.17.32-.17.1,0,.19.05.25.14ZM73.43,24.64c-.2.34-.31.76-.31,1.25v.02c.47-.11.84-.28,1.12-.5.27-.22.41-.48.41-.78,0-.15-.04-.27-.13-.37-.08-.09-.2-.14-.34-.14-.3,0-.55.17-.75.52Z"></path><path class="cls-1" d="M80.3,26.73c.1,0,.17.05.23.16.06.11.09.24.09.39,0,.34-.12.6-.36.8-.42.34-.89.52-1.42.52-.76,0-1.32-.32-1.67-.95-.35-.64-.53-1.47-.53-2.49s.13-2.09.38-3.34.62-2.32,1.12-3.22c.49-.9,1.08-1.34,1.76-1.34.38,0,.69.18.91.53.22.36.33.87.33,1.53,0,.95-.26,2.06-.79,3.31-.52,1.26-1.24,2.5-2.14,3.72.06.33.16.56.3.71.14.14.34.22.59.22.14,0,.29-.04.46-.12.17-.08.33-.18.47-.31.09-.08.18-.12.26-.12ZM79.02,19.45c-.23.66-.44,1.49-.61,2.47s-.27,1.93-.29,2.83c.57-.94,1.02-1.87,1.36-2.81.34-.94.5-1.8.5-2.57,0-.61-.11-.91-.34-.91-.18,0-.39.33-.62,1Z"></path><path class="cls-1" d="M91.23,26.01c.06.1.09.23.09.4,0,.32-.08.57-.23.74-.33.4-.69.74-1.08,1.03-.39.28-.78.43-1.16.43-.61,0-1.07-.36-1.39-1.07-.34.42-.63.71-.88.85-.25.14-.55.22-.88.22-.49,0-.89-.18-1.21-.55-.32-.36-.47-.84-.47-1.42,0-.64.14-1.23.41-1.78.27-.55.65-1,1.12-1.34.48-.35,1.01-.55,1.6-.62.15-1.55.44-2.88.87-3.98s.99-1.65,1.69-1.65c.34,0,.63.16.86.47.23.31.34.78.34,1.42,0,.9-.22,1.94-.66,3.14-.44,1.2-1.03,2.43-1.76,3.7.03.46.1.8.21,1,.11.2.25.3.41.3.22,0,.44-.1.66-.29.22-.19.52-.51.9-.96.1-.11.2-.17.32-.17.1,0,.19.05.25.14ZM86.57,27.21c.15-.12.34-.35.58-.69-.08-.43-.12-.92-.12-1.45,0-.19,0-.5.02-.94-.44.14-.81.43-1.1.88-.29.45-.44.95-.44,1.51,0,.58.2.88.6.88.15,0,.3-.06.46-.19ZM89.11,19.25c-.15.54-.28,1.25-.39,2.12-.11.87-.19,1.78-.23,2.74.9-1.95,1.34-3.52,1.34-4.7,0-.3-.03-.54-.08-.71s-.11-.25-.19-.25c-.15,0-.3.27-.46.81Z"></path><path class="cls-1" d="M94.89,26.37c.06.1.09.23.09.4,0,.29-.07.54-.2.74-.22.34-.52.61-.88.8-.36.19-.8.29-1.3.29-.77,0-1.36-.23-1.79-.69-.42-.46-.64-1.08-.64-1.87,0-.55.12-1.07.35-1.54.23-.48.55-.85.97-1.13s.88-.42,1.4-.42c.46,0,.84.14,1.12.41.28.28.42.65.42,1.12,0,.55-.2,1.03-.59,1.42s-1.07.71-2.02.94c.19.37.52.55.97.55.33,0,.6-.08.81-.23.21-.15.46-.41.74-.77.1-.12.2-.18.32-.18.1,0,.19.05.25.14ZM91.92,24.64c-.2.34-.31.76-.31,1.25v.02c.47-.11.84-.28,1.12-.5.27-.22.41-.48.41-.78,0-.15-.04-.27-.13-.37-.08-.09-.2-.14-.34-.14-.3,0-.55.17-.75.52Z"></path><path class="cls-1" d="M100.03,28.41c-.13-.13-.19-.38-.19-.75,0-.25.03-.57.08-.95.05-.39.14-.92.26-1.6.21-1.26.37-2.34.49-3.26.07-.58.11-1.06.11-1.44,0-.36-.13-.54-.4-.54-.21,0-.46.11-.75.32s-.61.55-.97,1.01c-.11.15-.24.23-.37.23-.11,0-.21-.05-.29-.16s-.13-.23-.13-.37c0-.13.03-.26.08-.39.05-.13.14-.28.26-.45.38-.54.81-.95,1.28-1.24.47-.29.94-.44,1.42-.44.44,0,.78.14,1.01.42.24.28.35.69.35,1.22,0,.22-.02.47-.06.76s-.08.53-.11.71c-.03.18-.06.31-.07.38.46-1.3.97-2.21,1.54-2.73.57-.52,1.19-.77,1.87-.77.52,0,.93.18,1.23.55s.45.89.45,1.56c0,.26-.04.59-.11.98.4-1.1.87-1.9,1.4-2.38.54-.48,1.15-.72,1.85-.72.56,0,.99.18,1.29.54.3.36.45.86.45,1.51,0,.35-.05.78-.16,1.28l-.73,3.43c-.08.4-.12.74-.12,1.03,0,.34.08.59.23.76.16.17.37.25.65.25.26,0,.52-.09.77-.26s.55-.47.89-.88c.1-.11.2-.17.32-.17.1,0,.19.05.25.14.06.1.09.23.09.4,0,.31-.08.56-.23.74-.42.5-.83.87-1.24,1.1-.41.23-.84.35-1.28.35-.68,0-1.21-.2-1.6-.61-.38-.4-.58-.95-.58-1.63,0-.47.1-1.16.29-2.05l.48-2.2c.02-.07.04-.2.08-.38.04-.18.07-.36.1-.52.02-.16.04-.33.04-.49,0-.28-.05-.49-.16-.63-.11-.14-.26-.21-.46-.21-.38,0-.77.24-1.18.73s-.8,1.29-1.18,2.41-.67,2.58-.91,4.37c-.06.48-.15.8-.29.97s-.37.25-.68.25c-.27,0-.47-.06-.59-.19s-.19-.37-.19-.72c0-.33.04-.76.13-1.29.09-.53.2-1.16.34-1.88.37-1.94.55-3.18.55-3.74,0-.3-.06-.53-.17-.67-.12-.14-.29-.22-.52-.22-.39,0-.8.22-1.21.67-.42.44-.82,1.23-1.22,2.36-.4,1.13-.73,2.66-.99,4.59-.06.41-.14.69-.25.85s-.32.24-.63.24-.51-.07-.64-.2Z"></path><path class="cls-1" d="M113.58,28.05c-.24-.37-.35-.86-.35-1.46,0-.36.05-.82.14-1.39.09-.56.21-1.09.35-1.58.07-.26.17-.43.29-.53.12-.1.31-.14.58-.14.41,0,.61.14.61.41,0,.2-.08.66-.23,1.39-.19.88-.29,1.48-.29,1.79,0,.24.03.42.1.55.06.13.17.19.32.19s.32-.1.54-.3c.22-.2.5-.52.86-.95.1-.11.2-.17.32-.17.1,0,.19.05.25.14.06.1.09.23.09.4,0,.32-.08.57-.23.74-.79.97-1.53,1.45-2.22,1.45-.52,0-.9-.18-1.13-.55ZM114.06,21.93c-.17-.16-.25-.37-.25-.65s.11-.51.33-.7c.22-.19.49-.28.82-.28.3,0,.54.07.72.22.18.14.28.35.28.61,0,.32-.1.57-.31.76-.21.19-.48.28-.83.28s-.59-.08-.76-.23Z"></path><path class="cls-1" d="M116.4,28.12c-.12-.32-.19-.83-.19-1.54,0-1.04.15-2.03.44-2.96.07-.23.19-.4.35-.51.16-.11.39-.16.69-.16.16,0,.27.02.34.06.06.04.1.12.1.23,0,.13-.06.42-.18.86-.08.32-.14.6-.19.84-.05.24-.09.54-.12.89.26-.69.56-1.25.89-1.68.33-.43.65-.74.97-.92.32-.18.61-.28.87-.28.52,0,.78.26.78.78,0,.1-.04.36-.11.76-.06.32-.1.52-.1.6,0,.28.1.42.3.42.22,0,.51-.18.86-.53.1-.1.21-.16.32-.16.1,0,.19.05.25.14.06.09.09.21.09.37,0,.3-.08.53-.24.7-.22.23-.49.43-.79.59s-.62.25-.95.25c-.42,0-.75-.11-.97-.32s-.33-.51-.33-.88c0-.12.01-.24.04-.36.02-.16.02-.27.02-.32,0-.13-.04-.19-.13-.19-.12,0-.28.13-.47.4-.2.27-.39.62-.58,1.06-.19.44-.35.9-.47,1.39-.09.38-.19.63-.31.76-.12.13-.3.2-.55.2-.3,0-.52-.16-.64-.48Z"></path><path class="cls-1" d="M128.83,26.01c.06.1.09.23.09.4,0,.32-.08.57-.23.74-.36.44-.72.79-1.09,1.06-.37.26-.8.4-1.31.4-.62,0-1.11-.18-1.49-.53-.38-.35-.56-.82-.56-1.4,0-.31.16-.54.48-.67.35-.15.6-.31.76-.49.15-.17.23-.38.23-.63,0-.14-.03-.25-.09-.32-.06-.07-.13-.11-.22-.11-.22,0-.45.16-.71.47-.26.31-.5.71-.73,1.21s-.4,1-.53,1.52c-.09.38-.19.63-.31.76s-.3.2-.55.2-.43-.09-.55-.27-.19-.46-.23-.83-.06-.93-.06-1.66c0-1.23.13-2.52.38-3.85s.62-2.46,1.12-3.37,1.08-1.36,1.77-1.36c.37,0,.67.16.89.47.23.32.34.73.34,1.23,0,.81-.24,1.65-.71,2.51-.47.87-1.24,1.88-2.3,3.04-.02.42-.04.84-.04,1.28.38-1,.82-1.73,1.32-2.18s.96-.68,1.39-.68c.4,0,.72.14.97.41.24.27.37.61.37,1.01,0,.44-.11.84-.34,1.21-.22.37-.61.7-1.15.98.03.22.13.39.29.52s.36.2.59.2c.25,0,.49-.1.72-.29.23-.19.54-.51.91-.96.1-.11.2-.17.32-.17.1,0,.19.05.25.14ZM124.27,19.07c-.18.41-.35.97-.51,1.67s-.3,1.46-.4,2.29c.5-.58.91-1.22,1.23-1.91.32-.69.49-1.31.49-1.87,0-.26-.03-.45-.08-.59-.06-.14-.14-.2-.24-.2-.14,0-.3.21-.48.62Z"></path><path class="cls-1" d="M128.78,28.25c-.33-.24-.58-.55-.75-.93-.17-.38-.25-.8-.25-1.24,0-.61.11-1.15.34-1.63.23-.48.54-.85.93-1.12.39-.27.83-.4,1.32-.4s.88.12,1.21.35.59.55.76.93c.17.38.25.8.25,1.24,0,.61-.12,1.15-.35,1.63-.23.48-.55.85-.94,1.12-.4.27-.83.4-1.31.4s-.87-.12-1.21-.35ZM130.8,26.86c.19-.3.28-.73.28-1.3,0-.44-.08-.77-.24-1-.16-.22-.35-.34-.58-.34-.29,0-.53.15-.71.44-.19.29-.28.73-.28,1.3,0,.46.08.79.24,1.01.16.22.36.32.6.32.27,0,.5-.15.69-.44Z"></path></g></g></svg>